<svg width="35" height="36" viewBox="0 0 35 36" fill="none" xmlns="http://www.w3.org/2000/svg">
<path fill-rule="evenodd" clip-rule="evenodd" d="M17.4995 0.5C7.83236 0.5 -0.000488281 8.53071 -0.000488281 18.4421C-0.000488281 26.3676 5.01253 33.0959 11.9681 35.4672C12.8454 35.6307 13.1644 35.0817 13.1644 34.6028C13.1644 34.1764 13.1473 33.0492 13.1416 31.554C8.27099 32.6345 7.2456 29.1477 7.2456 29.1477C6.44808 27.0743 5.30306 26.5195 5.30306 26.5195C3.7137 25.4098 5.42269 25.4332 5.42269 25.4332C7.17724 25.5617 8.1001 27.2788 8.1001 27.2788C9.66097 30.0238 12.196 29.2295 13.1929 28.7739C13.3524 27.6117 13.8081 26.8232 14.3037 26.3735C10.4186 25.9238 6.33415 24.3819 6.33415 17.5076C6.33415 15.5452 7.01774 13.9449 8.13427 12.6892C7.95768 12.2394 7.35384 10.4114 8.30518 7.94082C8.30518 7.94082 9.7749 7.46189 13.1188 9.78058C14.5145 9.38342 16.0127 9.18485 17.4995 9.17901C18.9863 9.18485 20.4845 9.38342 21.8802 9.78058C25.2241 7.46189 26.6881 7.94082 26.6881 7.94082C27.6452 10.4114 27.047 12.2394 26.8647 12.6892C27.987 13.9449 28.6592 15.5452 28.6592 17.5076C28.6592 24.3994 24.569 25.9121 20.6725 26.3618C21.2991 26.9108 21.8574 28.0088 21.8574 29.6792C21.8574 32.0797 21.8403 34.0129 21.8403 34.6028C21.8403 35.0817 22.1536 35.6424 23.0423 35.4672C29.9922 33.0901 34.9995 26.3676 34.9995 18.4421C34.9995 8.53071 27.1667 0.5 17.4995 0.5Z" fill="#FBFBFB" fill-opacity="0.63"/>
</svg>
