<svg width="39" height="36" viewBox="0 0 39 36" fill="none" xmlns="http://www.w3.org/2000/svg">
<path d="M36.1152 0.50326C35.6116 0.526683 35.1373 0.673072 34.7157 0.837029H34.7098C34.2824 1.00684 32.2505 1.86176 29.1646 3.15584C26.0787 4.45579 22.0734 6.1422 18.0975 7.8169C10.1573 11.1604 2.3518 14.4513 2.3518 14.4513L2.44549 14.4162C2.44549 14.4162 1.90677 14.5918 1.34464 14.9783C1.05771 15.1657 0.74151 15.4233 0.466298 15.8274C0.191085 16.2314 -0.0314282 16.8521 0.0505508 17.4903C0.18523 18.5736 0.887901 19.2236 1.39148 19.5808C1.90092 19.9438 2.38693 20.1136 2.38693 20.1136H2.39864L9.71814 22.5789C10.0461 23.6329 11.9491 29.8866 12.4059 31.3271C12.6752 32.1879 12.9387 32.7266 13.2666 33.1365C13.4247 33.3473 13.6121 33.523 13.8346 33.6635C13.9225 33.7162 14.0161 33.7572 14.1098 33.7923C14.1391 33.8099 14.1684 33.8157 14.2035 33.8216L14.1274 33.804C14.1508 33.8099 14.1684 33.8275 14.186 33.8333C14.2445 33.8509 14.2855 33.8567 14.3616 33.8684C15.521 34.2198 16.4521 33.4995 16.4521 33.4995L16.5048 33.4585L20.8262 29.5236L28.0696 35.0805L28.2335 35.1508C29.7443 35.8125 31.2726 35.4436 32.0807 34.7936C32.8946 34.1378 33.2108 33.3004 33.2108 33.3004L33.2635 33.1658L38.8614 4.49092C39.0195 3.78239 39.0605 3.12071 38.8849 2.4766C38.7092 1.83248 38.2583 1.22935 37.7137 0.907296C37.1633 0.579383 36.6187 0.479838 36.1152 0.50326ZM35.9629 3.57745C35.9571 3.67114 35.9746 3.65943 35.9336 3.84095V3.85852L30.3884 32.2347C30.365 32.2757 30.324 32.3636 30.2127 32.4514C30.0956 32.5451 30.0019 32.6036 29.5159 32.4104L20.6564 25.6179L15.3044 30.4956L16.4286 23.3167C16.4286 23.3167 30.3064 10.3816 30.9037 9.82537C31.501 9.26908 31.3019 9.15197 31.3019 9.15197C31.3428 8.47272 30.4001 8.95288 30.4001 8.95288L12.1482 20.26L12.1424 20.2308L3.3941 17.2854V17.2795C3.38824 17.2795 3.37653 17.2737 3.37067 17.2737C3.37653 17.2737 3.41752 17.2561 3.41752 17.2561L3.46436 17.2327L3.51121 17.2151C3.51121 17.2151 11.3226 13.9243 19.2628 10.5807C23.2387 8.90604 27.2439 7.21963 30.324 5.91969C33.404 4.6256 35.6818 3.67699 35.8107 3.62429C35.9336 3.57745 35.8751 3.57745 35.9629 3.57745Z" fill="#FBFBFB" fill-opacity="0.63"/>
</svg>
